<svg width="125" height="61" viewBox="0 0 125 61" fill="none" xmlns="http://www.w3.org/2000/svg">
<path d="M122.774 11.7315C123.655 14.5686 123.017 17.8525 120.869 21.4483C118.722 25.0437 115.12 28.8476 110.293 32.6236C100.645 40.1711 86.2739 47.4722 69.4656 52.6953C52.6572 57.9184 36.6794 60.0479 24.4528 59.2979C18.3357 58.9227 13.2126 57.83 9.40544 56.085C5.59771 54.3399 3.21099 51.996 2.32937 49.1588C1.44775 46.3217 2.08569 43.0379 4.23372 39.442C6.38142 35.8467 9.98296 32.0428 14.8101 28.2667C24.4583 20.7193 38.8291 13.4181 55.6374 8.19504C72.4457 2.97196 88.4235 0.8425 100.65 1.59244C106.767 1.96764 111.89 3.0604 115.697 4.80531C119.505 6.55049 121.892 8.8944 122.774 11.7315Z" stroke="#FCC0C0" stroke-width="2"/>
</svg>
