<svg width="20" height="24" viewBox="0 0 20 18" fill="none" xmlns="http://www.w3.org/2000/svg">
<path d="M19.5 5.5575C19.5 6.7175 19.06 7.8875 18.17 8.7775L16.69 10.2575L10.32 16.6275C10.29 16.6575 10.28 16.6675 10.25 16.6875C10.22 16.6675 10.21 16.6575 10.18 16.6275L2.33 8.7775C1.44 7.8875 1 6.7275 1 5.5575C1 4.3875 1.44 3.2175 2.33 2.3275C4.11 0.5575 6.99 0.5575 8.77 2.3275L10.24 3.8075L11.72 2.3275C13.5 0.5575 16.37 0.5575 18.15 2.3275C19.06 3.2175 19.5 4.3775 19.5 5.5575Z" stroke="black" stroke-linecap="round" stroke-linejoin="round"/>
</svg>
